<?xml version="1.0" encoding="UTF-8"?>
<svg id="Layer_1" data-name="Layer 1" xmlns="http://www.w3.org/2000/svg" viewBox="0 0 2000 474">
  <defs>
    <style>
      .cls-1 {
        fill: #fff;
      }
    </style>
  </defs>
  <path class="cls-1" d="M301.89,176.21c-24.36,84.7-138.51,118.08-197.67,47.26-7.29-8.74-11-17.22-15.77-27.24-.93-1.96-1.52-2.46-1.17.17,2.23,16.85,20.36,42.82,32.9,54.11,26.73,24.08,44.32,23.99,77.4,29.59,48.4,8.19,44.55,81.32-6.9,82.7-80.34,2.15-163.07-65.09-182.97-141.8L.2,181c.48-9.16-.64-18.92,0-28C5.76,74.4,71.71,6.38,150.6.92l1.59-.92h26c4.71,1.49,10.06,1.48,15.03,2.47,78.33,15.48,131.13,95.66,108.67,173.74Z"/>
  <g>
    <g>
      <path class="cls-1" d="M1408.69,136.87c-42.3-63.2-145.33-67.28-193.53-9.23l47.42,41.34c25.69-29.93,95.77-24.07,99.49,21.52-36.59-11.6-79.57-11.42-114.01,6.98-58.8,31.4-65.85,104.4-10.3,143.34,35.42,24.82,85.25,26.03,125.3,13.18v3h62v-175.5c0-11.72-9.73-34.71-16.37-44.63ZM1342.43,292.86c-16.62,6.97-40.83,7.32-57.62.9-6.31-2.41-19.44-9.84-21.26-16.73-5.34-20.12,26.48-29.35,41.32-30.73,15.13-1.41,31.4,1.11,44.5,8.89,22.85,13.59,13.51,29.09-6.94,37.67Z"/>
      <g>
        <path class="cls-1" d="M2000,215l-1.05-2.42c-1.91-64.87-52.36-122.65-118.4-126.62-137.12-8.26-185.31,177.59-78.85,252.86,52.22,36.91,129.69,28.95,170.26-21.21l-45.59-41.54c-1.55-.27-6.62,5.96-8.45,7.35-36.36,27.71-87.35,14.6-104.9-27.41h186.98v-41.01ZM1812.02,192c20.49-56.32,99-56.76,118.99,0h-118.99Z"/>
        <path class="cls-1" d="M1715.03,91h-61.99v14c-5.98-1.3-11.47-5.64-17.33-8.17-109.29-47.36-209.56,59.71-178.15,169.17,21.35,74.41,102.54,116.44,175.46,86.49,2.66-1.1,19.21-10.32,20.01-9.48,4.77,71.41-98.25,86.63-135.55,38.01l-51.39,36.43c66.37,93.01,236.87,65.22,248.98-55.91l-.04-270.54ZM1575.56,297.98c-80.56-7.24-81.01-139.46-.72-147.69,102.47-10.49,103.46,156.93.72,147.69Z"/>
      </g>
    </g>
    <g>
      <path class="cls-1" d="M1204.08,91l-121.5,307.99c-14.73,37.12-45.14,72.62-87.89,74.09l-1.59.92h-12c-7.5-1.3-14.82-2.22-22.21-4.28-5.45-1.53-10.83-3.47-15.77-6.21l27.08-56.44c40.29,14.97,53.87-27.78,62.89-57.48l-102.98-258.59h67.49l70.48,173,68.01-173h67.99Z"/>
      <g>
        <path class="cls-1" d="M775.13,92.5c-16.51,4.73-44.13,19.71-54.02,33.98-.58.84-1.37,1.04-.97,2.5l46.69,38.91c2.49.65,4.78-3.21,6.97-4.72,31.4-21.6,87.98-16.16,94.31,27.83-37.89-11.28-79.12-12.36-114.65,6.83-58.1,31.38-65.97,103.14-11.22,142.56,34.46,24.81,86.09,27.56,125.36,13.59l.52,4.02h62.99l.04-166.54c-3.92-80.11-83.45-119.74-156.02-98.96ZM813.63,298.99c-13.61-.75-50.41-10.57-45.03-30.03,4.2-15.2,33.7-22.34,47.32-22.68,14.58-.35,49.67,6.39,52.16,24.3,2.99,21.5-39.38,29.24-54.45,28.41Z"/>
        <path class="cls-1" d="M501.47,99.82c-1.51.74-10.69,6.88-11.31,6.17l-1.01-13.99h-61.99l-1.04,264.54c4.48,58.85,54.73,101.34,110.96,109.43l25.06-60.96c-27.39.14-58.64-12.28-69.17-39.33-.55-1.41-2.82-7.39-2.82-8.18v-14.5c67.44,41.77,153.63,14.67,186.84-56.64,52.94-113.64-57.64-244.06-175.52-186.54ZM553.61,299.04c-86.19-5.6-84.38-148.46,5.04-148.48,93.46-.02,89.97,154.65-5.04,148.48Z"/>
      </g>
    </g>
  </g>
</svg>